<svg xmlns="http://www.w3.org/2000/svg" width="140" height="41.482" viewBox="0 0 140 41.482">
  <g id="App_store_white_EN" transform="translate(0 0)">
    <g id="Group_3" data-name="Group 3" transform="translate(0 0)">
      <g id="Group_1" data-name="Group 1">
        <path id="Path_1" data-name="Path 1"
              d="M130.118,0H9.888c-.38,0-.756,0-1.135,0C8.435,0,8.12.01,7.8.015A13.7,13.7,0,0,0,5.722.2,6.912,6.912,0,0,0,3.75.849,6.676,6.676,0,0,0,2.072,2.071,6.49,6.49,0,0,0,.85,3.752,6.846,6.846,0,0,0,.2,5.726,13.474,13.474,0,0,0,.016,7.8c-.01.318-.011.637-.016.955V32.728c.005.322.006.634.016.956A13.474,13.474,0,0,0,.2,35.76,6.832,6.832,0,0,0,.85,37.735a6.438,6.438,0,0,0,1.222,1.674A6.507,6.507,0,0,0,3.75,40.632a6.949,6.949,0,0,0,1.971.654,13.954,13.954,0,0,0,2.078.183c.321.007.636.011.953.011.379,0,.755,0,1.135,0h120.23c.373,0,.751,0,1.124,0,.316,0,.64,0,.956-.011a13.77,13.77,0,0,0,2.074-.183,7.057,7.057,0,0,0,1.979-.654,6.51,6.51,0,0,0,1.677-1.222,6.631,6.631,0,0,0,1.225-1.674,6.848,6.848,0,0,0,.642-1.975,14.005,14.005,0,0,0,.192-2.076c0-.322,0-.634,0-.956.008-.377.008-.751.008-1.134V9.89c0-.38,0-.757-.008-1.132,0-.318,0-.637,0-.955a14,14,0,0,0-.192-2.076,6.863,6.863,0,0,0-.642-1.974,6.706,6.706,0,0,0-2.9-2.9A7.019,7.019,0,0,0,134.272.2,13.527,13.527,0,0,0,132.2.015c-.316-.005-.64-.011-.956-.013-.373,0-.751,0-1.124,0Z"
              transform="translate(0 0)" fill="#d3d3d3"/>
        <path id="Path_2" data-name="Path 2"
              d="M8.725,40.542c-.316,0-.624,0-.938-.011a13.158,13.158,0,0,1-1.938-.169,6.1,6.1,0,0,1-1.718-.568A5.606,5.606,0,0,1,2.682,38.74a5.518,5.518,0,0,1-1.058-1.448,5.934,5.934,0,0,1-.563-1.719,12.873,12.873,0,0,1-.173-1.944c-.007-.219-.015-.947-.015-.947V8.725S.882,8.008.888,7.8A12.829,12.829,0,0,1,1.06,5.856a5.969,5.969,0,0,1,.564-1.724,5.573,5.573,0,0,1,1.053-1.45,5.772,5.772,0,0,1,1.454-1.06,6.039,6.039,0,0,1,1.715-.564A13.052,13.052,0,0,1,7.79.888L8.726.875H131.2l.947.013a12.844,12.844,0,0,1,1.927.169,6.158,6.158,0,0,1,1.733.568,5.8,5.8,0,0,1,2.5,2.51,5.976,5.976,0,0,1,.555,1.71,13.478,13.478,0,0,1,.18,1.957c0,.294,0,.609,0,.923.008.389.008.759.008,1.132v21.7c0,.377,0,.744-.008,1.115,0,.337,0,.646,0,.964a13.2,13.2,0,0,1-.177,1.922,5.951,5.951,0,0,1-.56,1.732,5.684,5.684,0,0,1-1.053,1.437,5.614,5.614,0,0,1-1.451,1.06,6.079,6.079,0,0,1-1.73.57,13.008,13.008,0,0,1-1.938.169c-.3.007-.622.011-.931.011l-1.124,0Z"
              transform="translate(0.032 0.033)"/>
      </g>
      <g id="_Group_" data-name="&lt;Group&gt;" transform="translate(12.334 8.138)">
        <path id="_Path_" data-name="&lt;Path&gt;"
              d="M25.567,20.133a5.337,5.337,0,0,1,2.541-4.478,5.463,5.463,0,0,0-4.3-2.327c-1.811-.19-3.567,1.084-4.489,1.084-.941,0-2.362-1.065-3.892-1.033A5.732,5.732,0,0,0,10.6,16.321c-2.086,3.611-.53,8.918,1.468,11.837,1,1.429,2.168,3.026,3.7,2.969,1.5-.062,2.055-.954,3.86-.954,1.789,0,2.313.954,3.873.918,1.605-.026,2.616-1.436,3.581-2.878a11.822,11.822,0,0,0,1.638-3.335,5.157,5.157,0,0,1-3.148-4.744Z"
              transform="translate(-9.609 -7.645)" fill="#fff"/>
        <path id="_Path_2" data-name="&lt;Path&gt;"
              d="M22.281,11.611a5.255,5.255,0,0,0,1.2-3.764,5.346,5.346,0,0,0-3.459,1.79,5,5,0,0,0-1.233,3.625A4.421,4.421,0,0,0,22.281,11.611Z"
              transform="translate(-9.269 -7.847)" fill="#fff"/>
      </g>
      <g id="Group_2" data-name="Group 2" transform="translate(42.219 18.533)">
        <path id="Path_3" data-name="Path 3"
              d="M42.594,27.475H37.685l-1.179,3.481H34.427l4.65-12.878h2.16l4.65,12.878H43.771Zm-4.4-1.606h3.891L40.166,20.22h-.054Z"
              transform="translate(-34.427 -17.863)" fill="#fff"/>
        <path id="Path_4" data-name="Path 4"
              d="M55.475,26.141c0,2.918-1.562,4.792-3.918,4.792A3.183,3.183,0,0,1,48.6,29.291h-.045v4.651H46.631v-12.5H48.5v1.562h.035a3.331,3.331,0,0,1,2.99-1.66C53.9,21.348,55.475,23.231,55.475,26.141Zm-1.981,0c0-1.9-.982-3.151-2.481-3.151-1.473,0-2.463,1.276-2.463,3.151,0,1.892.99,3.159,2.463,3.159,1.5,0,2.481-1.241,2.481-3.159Z"
              transform="translate(-33.283 -17.742)" fill="#fff"/>
        <path id="Path_5" data-name="Path 5"
              d="M65.441,26.141c0,2.918-1.562,4.792-3.919,4.792a3.183,3.183,0,0,1-2.954-1.643h-.045v4.651H56.6v-12.5h1.865v1.562H58.5a3.331,3.331,0,0,1,2.99-1.66C63.869,21.348,65.441,23.231,65.441,26.141Zm-1.981,0c0-1.9-.982-3.151-2.481-3.151-1.473,0-2.463,1.276-2.463,3.151,0,1.892.99,3.159,2.463,3.159,1.5,0,2.481-1.241,2.481-3.159Z"
              transform="translate(-32.223 -17.742)" fill="#fff"/>
        <path id="Path_6" data-name="Path 6"
              d="M71.78,27.376c.143,1.277,1.383,2.116,3.079,2.116,1.624,0,2.793-.839,2.793-1.99,0-1-.7-1.6-2.374-2.008l-1.669-.4c-2.365-.571-3.463-1.677-3.463-3.472,0-2.222,1.936-3.748,4.685-3.748,2.722,0,4.588,1.526,4.651,3.748H77.536c-.116-1.285-1.179-2.061-2.731-2.061s-2.615.785-2.615,1.927c0,.91.679,1.446,2.338,1.856l1.419.348c2.642.625,3.739,1.686,3.739,3.57,0,2.409-1.918,3.918-4.971,3.918-2.856,0-4.784-1.474-4.909-3.8Z"
              transform="translate(-31.042 -17.871)" fill="#fff"/>
        <path id="Path_7" data-name="Path 7"
              d="M83.464,19.3v2.222H85.25v1.526H83.464v5.176c0,.8.357,1.179,1.142,1.179a6.022,6.022,0,0,0,.634-.045v1.517a5.293,5.293,0,0,1-1.07.089c-1.9,0-2.642-.714-2.642-2.535V23.048H80.163V21.522h1.365V19.3Z"
              transform="translate(-29.966 -17.818)" fill="#fff"/>
        <path id="Path_8" data-name="Path 8"
              d="M86.064,26.142c0-2.954,1.74-4.811,4.453-4.811s4.454,1.856,4.454,4.811-1.723,4.811-4.454,4.811S86.064,29.1,86.064,26.142Zm6.943,0c0-2.027-.929-3.223-2.49-3.223s-2.49,1.205-2.49,3.223c0,2.035.929,3.222,2.49,3.222s2.49-1.187,2.49-3.222Z"
              transform="translate(-29.056 -17.743)" fill="#fff"/>
        <path id="Path_9" data-name="Path 9"
              d="M96.185,21.446h1.838v1.6h.045a2.239,2.239,0,0,1,2.258-1.7,2.972,2.972,0,0,1,.66.072v1.8a2.694,2.694,0,0,0-.866-.116,1.942,1.942,0,0,0-2.008,2.16v5.569H96.185Z"
              transform="translate(-27.99 -17.742)" fill="#fff"/>
        <path id="Path_10" data-name="Path 10"
              d="M109.686,28.078c-.259,1.7-1.919,2.874-4.043,2.874-2.731,0-4.427-1.83-4.427-4.766s1.7-4.855,4.346-4.855c2.6,0,4.231,1.784,4.231,4.631v.66h-6.631v.116a2.445,2.445,0,0,0,2.526,2.659,2.124,2.124,0,0,0,2.168-1.321Zm-6.515-2.8h4.694a2.258,2.258,0,0,0-2.3-2.383,2.377,2.377,0,0,0-2.391,2.383Z"
              transform="translate(-27.112 -17.743)" fill="#fff"/>
      </g>
      <g id="Group_4" data-name="Group 4" transform="translate(43.51 8.75)">
        <path id="Path_11" data-name="Path 11"
              d="M37.906,8.731a2.737,2.737,0,0,1,2.912,3.075c0,1.977-1.068,3.113-2.912,3.113H35.671V8.731Zm-1.274,5.313H37.8a1.945,1.945,0,0,0,2.041-2.226A1.951,1.951,0,0,0,37.8,9.606H36.632Z"
              transform="translate(-35.671 -8.426)" fill="#fff"/>
        <path id="Path_12" data-name="Path 12"
              d="M41.681,12.531a2.212,2.212,0,1,1,4.4,0,2.213,2.213,0,1,1-4.4,0Zm3.457,0c0-1.012-.455-1.6-1.253-1.6s-1.252.592-1.252,1.6.451,1.608,1.252,1.608,1.253-.591,1.253-1.608Z"
              transform="translate(-35.449 -8.375)" fill="#fff"/>
        <path id="Path_13" data-name="Path 13"
              d="M51.759,14.865H50.8l-.965-3.439h-.073L48.8,14.865h-.947l-1.287-4.67H47.5l.837,3.563h.069l.96-3.563h.884l.96,3.563h.073l.832-3.563h.922Z"
              transform="translate(-35.267 -8.372)" fill="#fff"/>
        <path id="Path_14" data-name="Path 14"
              d="M53.854,10.2h.887v.742h.069a1.4,1.4,0,0,1,1.394-.832,1.519,1.519,0,0,1,1.616,1.737v3.023H56.9V12.076c0-.75-.326-1.124-1.008-1.124a1.071,1.071,0,0,0-1.115,1.183v2.732h-.922Z"
              transform="translate(-34.997 -8.375)" fill="#fff"/>
        <path id="Path_15" data-name="Path 15" d="M59.094,8.437h.922V14.93h-.922Z"
              transform="translate(-34.803 -8.437)" fill="#fff"/>
        <path id="Path_16" data-name="Path 16"
              d="M61.218,12.531a2.213,2.213,0,1,1,4.4,0,2.213,2.213,0,1,1-4.4,0Zm3.457,0c0-1.012-.455-1.6-1.253-1.6s-1.252.592-1.252,1.6.451,1.608,1.252,1.608,1.253-.591,1.253-1.608Z"
              transform="translate(-34.725 -8.375)" fill="#fff"/>
        <path id="Path_17" data-name="Path 17"
              d="M66.4,13.547c0-.841.626-1.325,1.737-1.394L69.4,12.08v-.4c0-.493-.326-.772-.956-.772-.514,0-.871.189-.973.519h-.892c.094-.8.849-1.317,1.908-1.317,1.171,0,1.831.583,1.831,1.569v3.191h-.887v-.656H69.36a1.571,1.571,0,0,1-1.4.733,1.411,1.411,0,0,1-1.557-1.4Zm3-.4v-.39l-1.14.073c-.643.043-.935.262-.935.673s.365.665.866.665A1.1,1.1,0,0,0,69.4,13.148Z"
              transform="translate(-34.532 -8.375)" fill="#fff"/>
        <path id="Path_18" data-name="Path 18"
              d="M71.348,12.593c0-1.476.759-2.41,1.938-2.41A1.539,1.539,0,0,1,74.719,11h.069V8.437h.922V14.93h-.883v-.738h-.073a1.621,1.621,0,0,1-1.466.815C72.1,15.007,71.348,14.072,71.348,12.593Zm.952,0c0,.99.467,1.586,1.248,1.586s1.257-.6,1.257-1.582-.485-1.586-1.257-1.586-1.248.6-1.248,1.582Z"
              transform="translate(-34.349 -8.437)" fill="#fff"/>
        <path id="Path_19" data-name="Path 19"
              d="M79.23,12.531a2.212,2.212,0,1,1,4.4,0,2.213,2.213,0,1,1-4.4,0Zm3.457,0c0-1.012-.455-1.6-1.253-1.6s-1.252.592-1.252,1.6.451,1.608,1.252,1.608S82.687,13.547,82.687,12.531Z"
              transform="translate(-34.057 -8.375)" fill="#fff"/>
        <path id="Path_20" data-name="Path 20"
              d="M84.669,10.2h.887v.742h.069a1.4,1.4,0,0,1,1.394-.832,1.519,1.519,0,0,1,1.616,1.737v3.023h-.922V12.076c0-.75-.326-1.124-1.008-1.124a1.071,1.071,0,0,0-1.115,1.183v2.732h-.922Z"
              transform="translate(-33.855 -8.375)" fill="#fff"/>
        <path id="Path_21" data-name="Path 21"
              d="M93.575,9.074v1.184h1.012v.776H93.575v2.4c0,.489.2.7.66.7a3.077,3.077,0,0,0,.351-.021v.768a3.023,3.023,0,0,1-.5.047c-1.025,0-1.433-.361-1.433-1.261V11.034h-.741v-.776h.741V9.074Z"
              transform="translate(-33.587 -8.413)" fill="#fff"/>
        <path id="Path_22" data-name="Path 22"
              d="M95.7,8.437h.913V11.01h.073a1.437,1.437,0,0,1,1.424-.837,1.538,1.538,0,0,1,1.608,1.741V14.93H98.8V12.142c0-.746-.347-1.124-1-1.124A1.091,1.091,0,0,0,96.626,12.2V14.93H95.7Z"
              transform="translate(-33.446 -8.437)" fill="#fff"/>
        <path id="Path_23" data-name="Path 23"
              d="M104.911,13.607a1.9,1.9,0,0,1-2.023,1.351,2.121,2.121,0,0,1-2.157-2.41,2.154,2.154,0,0,1,2.153-2.44c1.3,0,2.083.888,2.083,2.354v.322h-3.3v.052a1.234,1.234,0,0,0,1.244,1.338,1.119,1.119,0,0,0,1.111-.566Zm-3.242-1.5h2.359a1.127,1.127,0,0,0-1.149-1.21,1.194,1.194,0,0,0-1.209,1.21Z"
              transform="translate(-33.261 -8.375)" fill="#fff"/>
      </g>
    </g>
  </g>
</svg>
